<svg width="18" height="18" viewBox="0 0 18 18" fill="none" xmlns="http://www.w3.org/2000/svg">
<path fill-rule="evenodd" clip-rule="evenodd" d="M16.8936 2.10814C17.0391 2.10814 17.1768 2.1809 17.2677 2.30591C17.3587 2.43094 17.393 2.59463 17.361 2.75085L15.9236 9.77787C15.8744 10.0183 15.6802 10.1892 15.4561 10.1892H5.83645L6.205 11.946H15.4241C15.6887 11.946 15.9033 12.1819 15.9033 12.473C15.9033 12.764 15.6888 13 15.4241 13H5.8238C5.60069 13 5.40707 12.8306 5.35691 12.5915L2.93628 1.05407H1.24111C0.976508 1.05407 0.761963 0.818129 0.761963 0.527054C0.761963 0.235979 0.976508 0 1.24111 0H3.31746C3.54057 0 3.73415 0.169392 3.78434 0.408511L4.14095 2.10814H16.8936ZM5.61542 9.13512H15.0729L16.2947 3.16217H4.36225L5.61542 9.13512Z" fill="#443737"/>
<path fill-rule="evenodd" clip-rule="evenodd" d="M6.29883 16C6.29883 14.8972 7.1268 14 8.14447 14C9.16217 14 9.99011 14.8972 9.99011 16C9.99011 17.1028 9.16214 18 8.14447 18C7.12677 18 6.29883 17.1028 6.29883 16ZM7.3055 16C7.3055 16.5013 7.68183 16.9091 8.14441 16.9091C8.607 16.9091 8.98333 16.5013 8.98333 16C8.98333 15.4987 8.607 15.0909 8.14441 15.0909C7.68183 15.0909 7.3055 15.4987 7.3055 16Z" fill="#443737"/>
<path fill-rule="evenodd" clip-rule="evenodd" d="M11.8354 16C11.8354 14.8972 12.6634 14 13.6811 14C14.6988 14 15.5267 14.8972 15.5267 16C15.5267 17.1028 14.6988 18 13.6811 18C12.6634 18 11.8354 17.1028 11.8354 16ZM12.8425 16C12.8425 16.5013 13.2188 16.9091 13.6814 16.9091C14.144 16.9091 14.5203 16.5013 14.5203 16C14.5203 15.4987 14.144 15.0909 13.6814 15.0909C13.2188 15.0909 12.8425 15.4987 12.8425 16Z" fill="#443737"/>
</svg>
